<svg width="984" height="984" viewBox="0 0 984 984" fill="none" xmlns="http://www.w3.org/2000/svg">
<g clip-path="url(#clip0_1_2)">
<rect width="2767.55" height="1556.75" transform="translate(-891.555 -115.625)" fill="#111111"/>
<g filter="url(#filter0_f_1_2)">
<circle cx="492.245" cy="375.046" r="407.644" fill="url(#paint0_linear_1_2)"/>
</g>
<g filter="url(#filter1_f_1_2)">
<rect x="296.38" y="366.766" width="391.736" height="555.787" fill="url(#paint1_linear_1_2)"/>
</g>
<g filter="url(#filter2_b_1_2)">
<path d="M210.458 652.225C212.144 656.244 215.07 659.619 218.809 661.857L481.587 819.155C488.051 823.024 496.12 823.024 502.584 819.155L765.362 661.857C769.101 659.619 772.027 656.244 773.713 652.225L839.53 495.318C840.58 492.814 841.121 490.126 841.121 487.411V197.533C841.121 177.448 815.186 169.408 803.824 185.97L672.911 376.8C671.3 379.147 670.198 381.805 669.674 384.603L630.77 592.463C629.499 599.258 624.879 604.949 618.492 607.591L499.899 656.648C494.896 658.718 489.276 658.718 484.272 656.648L365.68 607.591C359.292 604.949 354.673 599.258 353.401 592.463L314.497 384.603C313.973 381.805 312.871 379.147 311.261 376.8L180.347 185.97C168.985 169.408 143.05 177.448 143.05 197.533V487.411C143.05 490.126 143.591 492.814 144.641 495.318L210.458 652.225Z" fill="url(#paint2_linear_1_2)"/>
<path d="M209.15 652.774C210.952 657.072 214.082 660.681 218.081 663.075L480.858 820.373C487.771 824.511 496.4 824.511 503.313 820.373L766.091 663.075C770.09 660.681 773.219 657.072 775.022 652.774L840.839 495.867C841.962 493.189 842.54 490.315 842.54 487.411V197.533C842.54 176.054 814.805 167.455 802.654 185.167L671.74 375.997C670.018 378.507 668.84 381.35 668.28 384.342L629.375 592.202C628.192 598.525 623.893 603.821 617.949 606.28L499.357 655.336C494.701 657.262 489.471 657.262 484.815 655.336L366.222 606.28C360.278 603.821 355.979 598.525 354.796 592.202L315.892 384.342C315.332 381.35 314.153 378.507 312.431 375.997L181.517 185.167C169.367 167.455 141.631 176.054 141.631 197.533V487.411C141.631 490.315 142.21 493.189 143.333 495.867L209.15 652.774Z" stroke="url(#paint3_radial_1_2)" stroke-width="2.83839"/>
</g>
<g filter="url(#filter3_b_1_2)">
<path d="M239.6 650.929C241.111 654.531 243.735 657.557 247.087 659.564L482.67 800.576C488.465 804.045 495.699 804.045 501.494 800.576L737.077 659.564C740.429 657.557 743.052 654.531 744.564 650.929L803.569 510.266C804.511 508.021 804.996 505.612 804.996 503.178V243.311C804.996 225.306 781.745 218.098 771.559 232.945L654.193 404.018C652.75 406.123 651.762 408.505 651.292 411.013L616.414 597.354C615.274 603.445 611.133 608.547 605.406 610.916L499.087 654.893C494.601 656.749 489.563 656.749 485.077 654.893L378.758 610.916C373.031 608.547 368.89 603.445 367.75 597.354L332.872 411.013C332.402 408.505 331.414 406.123 329.97 404.018L212.605 232.945C202.419 218.098 179.168 225.306 179.168 243.311V503.178C179.168 505.612 179.653 508.021 180.595 510.266L239.6 650.929Z" fill="url(#paint4_linear_1_2)"/>
<path d="M238.291 651.478C239.92 655.359 242.746 658.619 246.358 660.781L481.941 801.794C488.185 805.531 495.979 805.531 502.223 801.794L737.806 660.781C741.418 658.619 744.244 655.359 745.872 651.478L804.878 510.815C805.892 508.396 806.415 505.8 806.415 503.178V243.311C806.415 223.911 781.363 216.145 770.389 232.142L653.023 403.215C651.468 405.483 650.403 408.05 649.897 410.752L615.019 597.093C613.967 602.712 610.147 607.419 604.864 609.604L498.544 653.582C494.406 655.294 489.758 655.294 485.62 653.582L379.3 609.604C374.017 607.419 370.196 602.712 369.145 597.093L334.267 410.752C333.761 408.05 332.696 405.483 331.141 403.215L213.775 232.142C202.801 216.145 177.749 223.911 177.749 243.311V503.178C177.749 505.8 178.271 508.397 179.286 510.815L238.291 651.478Z" stroke="url(#paint5_radial_1_2)" stroke-width="2.83839"/>
</g>
<g filter="url(#filter4_b_1_2)">
<path d="M277.364 650.537C278.649 653.601 280.88 656.174 283.731 657.881L484.083 777.814C489.012 780.765 495.163 780.765 500.092 777.814L700.444 657.881C703.295 656.174 705.526 653.601 706.811 650.537L756.992 530.9C757.793 528.991 758.206 526.942 758.206 524.872V303.85C758.206 288.536 738.432 282.406 729.769 295.033L629.956 440.535C628.728 442.324 627.887 444.351 627.488 446.484L597.826 604.97C596.856 610.151 593.334 614.49 588.464 616.505L498.045 653.909C494.23 655.487 489.945 655.487 486.13 653.909L395.711 616.505C390.841 614.49 387.318 610.151 386.349 604.97L356.687 446.484C356.288 444.351 355.447 442.324 354.219 440.535L254.406 295.033C245.743 282.406 225.969 288.536 225.969 303.85V524.872C225.969 526.942 226.382 528.991 227.183 530.9L277.364 650.537Z" fill="url(#paint6_linear_1_2)"/>
<path d="M276.051 651.087C277.454 654.431 279.889 657.24 283 659.102L483.352 779.036C488.731 782.256 495.444 782.256 500.823 779.036L701.175 659.102C704.286 657.24 706.721 654.431 708.124 651.087L758.305 531.451C759.179 529.368 759.629 527.131 759.629 524.872V303.85C759.629 287.138 738.049 280.447 728.595 294.228L628.782 439.729C627.442 441.683 626.525 443.894 626.089 446.222L596.427 604.708C595.546 609.416 592.345 613.359 587.92 615.189L497.501 652.593C494.034 654.027 490.141 654.027 486.674 652.593L396.255 615.189C391.829 613.359 388.629 609.416 387.748 604.708L358.086 446.222C357.65 443.894 356.733 441.683 355.393 439.729L255.58 294.228C246.126 280.447 224.546 287.138 224.546 303.85V524.872C224.546 527.131 224.996 529.368 225.87 531.451L276.051 651.087Z" stroke="url(#paint7_radial_1_2)" stroke-width="2.84702"/>
</g>
<g filter="url(#filter5_b_1_2)">
<path d="M312.854 648.872C313.927 651.437 315.789 653.591 318.169 655.02L485.412 755.417C489.526 757.887 494.662 757.887 498.776 755.417L666.019 655.02C668.399 653.591 670.261 651.437 671.334 648.872L713.223 548.723C713.891 547.125 714.235 545.409 714.235 543.676V358.657C714.235 345.837 697.729 340.705 690.498 351.276L607.179 473.077C606.154 474.575 605.453 476.271 605.119 478.057L580.359 610.728C579.55 615.064 576.61 618.697 572.544 620.383L497.067 651.695C493.882 653.016 490.306 653.016 487.121 651.695L411.644 620.383C407.578 618.697 404.638 615.064 403.829 610.728L379.069 478.057C378.735 476.271 378.034 474.575 377.009 473.077L293.69 351.276C286.459 340.705 269.953 345.837 269.953 358.657V543.676C269.953 545.409 270.297 547.125 270.965 548.723L312.854 648.872Z" fill="url(#paint8_linear_1_2)"/>
<path d="M311.545 649.419C312.734 652.263 314.799 654.652 317.439 656.236L484.682 756.634C489.246 759.374 494.943 759.374 499.506 756.634L666.749 656.236C669.389 654.652 671.454 652.263 672.643 649.419L714.532 549.27C715.273 547.499 715.655 545.597 715.655 543.676V358.657C715.655 344.451 697.351 338.744 689.327 350.475L606.008 472.276C604.871 473.937 604.094 475.817 603.724 477.797L578.964 610.467C578.242 614.334 575.622 617.57 572.001 619.072L496.523 650.384C493.687 651.56 490.501 651.56 487.665 650.384L412.188 619.072C408.567 617.57 405.946 614.334 405.224 610.467L380.464 477.797C380.094 475.817 379.317 473.937 378.18 472.276L294.861 350.475C286.837 338.744 268.534 344.451 268.534 358.657V543.676C268.534 545.597 268.915 547.499 269.656 549.27L311.545 649.419Z" stroke="url(#paint9_radial_1_2)" stroke-width="2.83839"/>
</g>
<g filter="url(#filter6_b_1_2)">
<path d="M341.274 647.161C342.176 649.315 343.743 651.125 345.746 652.325L486.463 736.659C489.925 738.734 494.245 738.734 497.707 736.659L638.424 652.325C640.427 651.125 641.993 649.315 642.896 647.161L678.141 563.035C678.704 561.693 678.993 560.252 678.993 558.796V403.38C678.993 392.611 665.105 388.3 659.021 397.18L588.917 499.493C588.054 500.751 587.464 502.176 587.184 503.676L566.351 615.119C565.67 618.762 563.196 621.814 559.775 623.23L496.269 649.532C493.59 650.641 490.58 650.641 487.901 649.532L424.395 623.23C420.974 621.814 418.5 618.762 417.819 615.119L396.986 503.676C396.706 502.176 396.116 500.751 395.253 499.493L325.149 397.18C319.065 388.3 305.177 392.611 305.177 403.38V558.796C305.177 560.252 305.466 561.693 306.029 563.035L341.274 647.161Z" fill="url(#paint10_linear_1_2)"/>
<path d="M339.965 647.709C340.984 650.143 342.754 652.186 345.016 653.542L485.733 737.876C489.644 740.22 494.526 740.22 498.437 737.876L639.154 653.542C641.416 652.186 643.186 650.143 644.205 647.709L679.45 563.584C680.085 562.068 680.412 560.44 680.412 558.796V403.38C680.412 391.221 664.725 386.344 657.85 396.378L587.746 498.691C586.772 500.112 586.105 501.721 585.789 503.415L564.956 614.859C564.363 618.03 562.209 620.686 559.232 621.919L495.726 648.221C493.394 649.186 490.776 649.186 488.444 648.221L424.938 621.919C421.961 620.686 419.807 618.03 419.214 614.859L398.381 503.415C398.065 501.721 397.398 500.112 396.424 498.691L326.32 396.378C319.445 386.344 303.758 391.221 303.758 403.38V558.796C303.758 560.44 304.085 562.068 304.72 563.584L339.965 647.709Z" stroke="url(#paint11_radial_1_2)" stroke-width="2.83839"/>
</g>
<g filter="url(#filter7_b_1_2)">
<path d="M369.315 646.042C370.05 647.796 371.325 649.269 372.955 650.246L487.509 718.894C490.327 720.583 493.844 720.583 496.662 718.894L611.215 650.246C612.846 649.269 614.121 647.796 614.856 646.042L643.548 577.564C644.006 576.471 644.241 575.298 644.241 574.113V447.603C644.241 438.838 632.936 435.329 627.983 442.557L570.913 525.84C570.211 526.864 569.731 528.024 569.502 529.245L552.543 619.96C551.988 622.926 549.974 625.41 547.19 626.563L495.492 647.972C493.31 648.875 490.86 648.875 488.679 647.972L436.981 626.563C434.196 625.41 432.183 622.926 431.628 619.96L414.669 529.245C414.44 528.024 413.96 526.864 413.258 525.84L356.188 442.557C351.235 435.329 339.929 438.838 339.929 447.603V574.113C339.929 575.298 340.165 576.471 340.623 577.564L369.315 646.042Z" fill="url(#paint12_linear_1_2)"/>
<path d="M367.954 646.612C368.81 648.656 370.297 650.373 372.197 651.511L486.75 720.16C490.035 722.128 494.136 722.128 497.421 720.16L611.974 651.511C613.874 650.373 615.36 648.656 616.217 646.612L644.909 578.134C645.442 576.861 645.717 575.494 645.717 574.113V447.603C645.717 437.392 632.54 433.295 626.765 441.723L569.696 525.006C568.878 526.2 568.318 527.551 568.052 528.974L551.092 619.689C550.629 622.165 548.949 624.237 546.625 625.2L494.927 646.609C493.107 647.363 491.063 647.363 489.244 646.609L437.545 625.2C435.222 624.237 433.541 622.165 433.078 619.689L416.119 528.974C415.853 527.551 415.293 526.2 414.475 525.006L357.405 441.723C351.63 433.295 338.454 437.392 338.454 447.603V574.113C338.454 575.494 338.729 576.861 339.262 578.134L367.954 646.612Z" stroke="url(#paint13_radial_1_2)" stroke-width="2.95092"/>
</g>
<g opacity="0.6">
<path d="M164.567 1129.23C165.715 1126.43 165.935 1123.33 165.197 1120.39L118.392 933.985C117.116 928.904 113.148 924.936 108.067 923.66L-78.3376 876.855C-81.277 876.117 -84.3754 876.337 -87.1805 877.484L-186.012 917.905C-187.76 918.62 -189.348 919.676 -190.683 921.011L-319.313 1049.64C-329.19 1059.52 -320.39 1076.22 -306.659 1073.67L-163.889 1047.08C-161.943 1046.72 -160.094 1045.95 -158.46 1044.83L-48.9611 969.862C-45.769 967.676 -41.6885 967.252 -38.115 968.734L36.2778 999.59C39.0769 1000.75 41.301 1002.97 42.462 1005.77L73.318 1080.17C74.8002 1083.74 74.3759 1087.82 72.1903 1091.01L-2.78235 1200.51C-3.90066 1202.15 -4.66553 1203.99 -5.02793 1205.94L-31.6154 1348.71C-34.1725 1362.44 -17.4655 1371.24 -7.58939 1361.37L121.041 1232.73C122.376 1231.4 123.432 1229.81 124.147 1228.06L164.567 1129.23Z" fill="#222222" fill-opacity="0.04" stroke="url(#paint14_radial_1_2)" stroke-width="2.77466"/>
<path d="M151.057 1116.88C152.097 1114.33 152.297 1111.52 151.628 1108.86L109.663 941.748C108.507 937.142 104.91 933.544 100.303 932.388L-66.8076 890.423C-69.4725 889.754 -72.2814 889.954 -74.8245 890.994L-163.425 927.228C-165.01 927.876 -166.449 928.833 -167.66 930.044L-282.973 1045.36C-291.926 1054.31 -283.949 1069.46 -271.5 1067.14L-143.509 1043.31L-143.763 1041.94L-143.509 1043.31C-141.744 1042.98 -140.068 1042.28 -138.587 1041.27L-40.4239 974.061C-37.6023 972.129 -33.9954 971.754 -30.8366 973.064L35.8563 1000.73C38.3306 1001.75 40.2967 1003.72 41.323 1006.19L68.9866 1072.89C70.2968 1076.05 69.9219 1079.65 67.99 1082.47L0.780103 1180.64C-0.233725 1182.12 -0.927108 1183.8 -1.25562 1185.56L-25.0881 1313.55C-27.406 1326 -12.2596 1333.98 -3.30604 1325.02L112.007 1209.71C113.218 1208.5 114.175 1207.06 114.823 1205.48L151.057 1116.88Z" fill="#222222" fill-opacity="0.04" stroke="url(#paint15_radial_1_2)" stroke-width="2.77466"/>
<path d="M134.13 1100.3C135.032 1098.09 135.205 1095.66 134.625 1093.35L98.9405 951.222C97.9377 947.228 94.8194 944.11 90.8257 943.107L-51.2977 907.423C-53.6079 906.843 -56.043 907.016 -58.2476 907.918L-133.603 938.738C-134.976 939.3 -136.224 940.129 -137.273 941.179L-235.349 1039.25C-243.111 1047.02 -236.196 1060.15 -225.405 1058.14L-116.549 1037.86C-115.019 1037.58 -113.566 1036.98 -112.282 1036.1L-28.7934 978.935C-26.4526 977.332 -23.4605 977.021 -20.8402 978.108L35.8803 1001.63C37.9328 1002.48 39.5637 1004.12 40.415 1006.17L63.9401 1062.89C65.0269 1065.51 64.7158 1068.5 63.1131 1070.84L5.94872 1154.33C5.06978 1155.61 4.46864 1157.07 4.18378 1158.6L-16.0897 1267.45C-18.0996 1278.24 -4.96906 1285.16 2.79297 1277.4L100.869 1179.32C101.918 1178.27 102.748 1177.02 103.31 1175.65L134.13 1100.3Z" fill="#222222" fill-opacity="0.04" stroke="url(#paint16_radial_1_2)" stroke-width="2.7831"/>
<path d="M117.641 1085.28C118.415 1083.4 118.567 1081.31 118.073 1079.33L88.4111 960.572C87.5573 957.153 84.8902 954.486 81.4713 953.632L-37.2916 923.97C-39.269 923.476 -41.3534 923.628 -43.2408 924.402L-106.269 950.254C-107.444 950.736 -108.513 951.448 -109.412 952.347L-191.512 1034.45C-198.159 1041.09 -192.267 1052.34 -183.018 1050.6L-91.9976 1033.52C-90.6884 1033.28 -89.4444 1032.76 -88.3452 1032.01L-18.4868 984.125C-16.589 982.824 -14.1669 982.57 -12.0491 983.446L35.3373 1003.04C36.996 1003.73 38.3128 1005.05 38.9988 1006.71L58.5972 1054.09C59.4731 1056.21 59.2188 1058.63 57.9179 1060.53L10.0339 1130.39C9.28045 1131.49 8.76429 1132.73 8.51867 1134.04L-8.55714 1225.06C-10.2923 1234.31 0.949167 1240.2 7.59559 1233.56L89.6962 1151.45C90.5951 1150.56 91.3065 1149.49 91.7888 1148.31L90.5052 1147.78L91.7888 1148.31L117.641 1085.28Z" fill="#222222" fill-opacity="0.04" stroke="url(#paint17_radial_1_2)" stroke-width="2.77466"/>
<path d="M104.269 1073.43C104.936 1071.8 105.066 1070 104.638 1068.29L79.6183 968.429C78.8784 965.476 76.5734 963.171 73.6203 962.431L-26.2441 937.412C-27.9522 936.984 -29.7528 937.113 -31.3829 937.781L-84.3523 959.471C-85.3679 959.887 -86.2906 960.501 -87.0667 961.277L-156.031 1030.24C-161.771 1035.98 -156.668 1045.69 -148.684 1044.2L-72.1758 1029.91C-71.0449 1029.7 -69.9704 1029.25 -69.0211 1028.6L-10.3248 988.394C-8.79263 987.344 -6.83556 987.14 -5.12298 987.849L34.7283 1004.36C36.0697 1004.91 37.1352 1005.98 37.6909 1007.32L54.2002 1047.17C54.9096 1048.88 54.7054 1050.84 53.6559 1052.37L13.4485 1111.07C12.7983 1112.02 12.3532 1113.09 12.142 1114.23L-2.15028 1190.73C-3.64178 1198.72 6.06833 1203.82 11.808 1198.08L80.7726 1129.12C81.5487 1128.34 82.1626 1127.42 82.5785 1126.4L104.269 1073.43Z" fill="#222222" fill-opacity="0.04" stroke="url(#paint18_radial_1_2)" stroke-width="2.77466"/>
<path d="M91.2624 1061.46C91.8207 1060.09 91.9289 1058.59 91.5709 1057.16L71.201 975.866C70.5821 973.396 68.654 971.467 66.1837 970.848L-15.1103 950.479C-16.5391 950.121 -18.0451 950.229 -19.4086 950.787L-62.5269 968.442C-63.3764 968.79 -64.1482 969.303 -64.7973 969.952L-120.935 1026.09C-125.735 1030.89 -121.467 1039.01 -114.789 1037.77L-52.5086 1026.13C-51.5627 1025.96 -50.6639 1025.58 -49.87 1025.04L-2.09026 992.312C-0.894706 991.494 0.632394 991.334 1.96864 991.888L34.4096 1005.33C35.4562 1005.76 36.2875 1006.59 36.7212 1007.64L50.1616 1040.08C50.7152 1041.42 50.5559 1042.94 49.737 1044.14L17.0086 1091.92C16.4648 1092.71 16.0925 1093.61 15.9159 1094.56L4.28387 1156.84C3.03652 1163.52 11.1589 1167.78 15.9596 1162.98L72.0971 1106.85C72.7462 1106.2 73.2597 1105.43 73.6075 1104.58L91.2624 1061.46Z" fill="#222222" fill-opacity="0.04" stroke="url(#paint19_radial_1_2)" stroke-width="2.62899"/>
<path d="M360.264 1053.33C358.77 1052.19 356.951 1051.56 355.074 1051.53L236.03 1049.66C232.785 1049.6 229.775 1051.34 228.197 1054.18L170.303 1158.21C169.39 1159.85 169.025 1161.74 169.262 1163.6L177.602 1229.22C177.75 1230.38 178.127 1231.5 178.712 1232.52L235.057 1330.11C239.383 1337.6 250.791 1335.02 251.462 1326.39L258.444 1236.7C258.539 1235.47 258.378 1234.24 257.971 1233.09L230.666 1155.55C229.87 1153.29 230.27 1150.78 231.73 1148.88L262.121 1109.31C263.264 1107.82 264.952 1106.85 266.813 1106.6L316.274 1100.06C318.65 1099.75 321.024 1100.66 322.584 1102.48L376.084 1164.9C376.882 1165.83 377.866 1166.58 378.972 1167.11L460.139 1205.91C467.946 1209.64 475.889 1201.05 471.563 1193.56L415.218 1095.97C414.633 1094.96 413.853 1094.07 412.921 1093.36L360.264 1053.33Z" fill="#222222" fill-opacity="0.04" stroke="url(#paint20_radial_1_2)" stroke-width="1.71885"/>
<path d="M-143.433 860.267C-142.066 861.34 -140.434 861.965 -138.769 862.035L-33.9677 866.435C-31.0764 866.556 -28.4904 864.991 -27.257 862.373L17.4485 767.483C18.1586 765.976 18.3614 764.24 18.0455 762.532L6.79525 701.677C6.59836 700.612 6.20456 699.582 5.63788 698.646L-49.7365 607.157C-51.8248 603.706 -55.3444 602.455 -58.3903 603.114C-61.4515 603.776 -63.9633 606.358 -64.001 610.325L-64.789 693.094C-64.7996 694.216 -64.5858 695.344 -64.1643 696.408L-35.5247 768.71C-34.6737 770.859 -34.895 773.175 -36.0481 774.875L-60.4136 810.777C-61.3141 812.104 -62.7098 812.948 -64.303 813.131L-107.411 818.067C-109.451 818.301 -111.606 817.422 -113.115 815.672L-163.889 756.767C-164.636 755.9 -165.537 755.187 -166.535 754.677L-240.231 716.989C-243.763 715.182 -247.215 716.21 -249.221 718.615C-251.218 721.008 -251.741 724.707 -249.653 728.157L-194.279 819.647C-193.712 820.583 -192.982 821.409 -192.13 822.078L-143.433 860.267Z" fill="#222222" fill-opacity="0.04" stroke="url(#paint21_radial_1_2)" stroke-width="1.55828"/>
<path d="M-135.391 854.84C-134.153 855.811 -132.674 856.378 -131.163 856.441L-37.2088 860.384C-34.5843 860.494 -32.2359 859.073 -31.1163 856.697L8.96389 771.629C9.60821 770.261 9.79155 768.688 9.50556 767.141L-0.579188 712.586C-0.757475 711.622 -1.11404 710.689 -1.62703 709.841L-51.2685 627.824C-53.1582 624.702 -56.3478 623.565 -59.1125 624.163C-61.8926 624.764 -64.172 627.11 -64.2063 630.706L-64.9141 704.907C-64.9238 705.923 -64.7301 706.945 -64.3485 707.908L-38.6745 772.725C-37.9204 774.629 -38.1182 776.677 -39.1356 778.176L-60.9799 810.362C-61.774 811.532 -63.0043 812.277 -64.4092 812.438L-103.055 816.864C-104.855 817.07 -106.762 816.295 -108.099 814.744L-153.616 761.938C-154.293 761.153 -155.109 760.508 -156.013 760.045L-222.081 726.26C-225.282 724.623 -228.417 725.554 -230.239 727.738C-232.051 729.911 -232.523 733.264 -230.634 736.386L-180.992 818.403C-180.479 819.251 -179.818 819.999 -179.047 820.604L-135.391 854.84Z" fill="#222222" fill-opacity="0.04" stroke="url(#paint22_radial_1_2)" stroke-width="1.55828"/>
<path d="M-124.726 848.216C-123.655 849.056 -122.373 849.549 -121.062 849.604L-41.1569 852.96C-38.877 853.056 -36.8354 851.82 -35.8629 849.756L-1.77846 777.406C-1.21927 776.219 -1.06105 774.856 -1.30857 773.517L-9.88699 727.118C-10.0413 726.284 -10.3498 725.477 -10.7934 724.744L-53.0144 654.987C-54.6475 652.288 -57.4109 651.299 -59.8125 651.818C-62.2294 652.341 -64.2085 654.382 -64.2381 657.497L-64.8379 720.605C-64.8463 721.486 -64.6785 722.37 -64.3484 723.203L-42.5115 778.331C-41.8831 779.917 -42.0504 781.617 -42.8913 782.856L-61.4682 810.23C-62.1241 811.196 -63.1394 811.811 -64.2998 811.944L-97.167 815.707C-98.6548 815.877 -100.239 815.237 -101.353 813.945L-140.066 769.032C-140.651 768.353 -141.357 767.794 -142.14 767.393L-198.329 738.657C-201.103 737.239 -203.83 738.045 -205.414 739.944C-206.988 741.831 -207.392 744.738 -205.759 747.436L-163.538 817.194C-163.094 817.926 -162.523 818.574 -161.855 819.098L-124.726 848.216Z" fill="#222222" fill-opacity="0.04" stroke="url(#paint23_radial_1_2)" stroke-width="1.56301"/>
<path d="M-114.945 841.578C-114.03 842.297 -112.934 842.721 -111.811 842.769L-45.0555 845.66C-43.0994 845.745 -41.3471 844.684 -40.5149 842.912L-12.1172 782.429C-11.6393 781.411 -11.5063 780.244 -11.7189 779.1L-18.9337 740.28C-19.0662 739.566 -19.3302 738.877 -19.7091 738.251L-55.0527 679.857C-56.4464 677.554 -58.8086 676.699 -60.8687 677.142C-62.9448 677.589 -64.639 679.346 -64.6609 682.011L-65.0959 734.799C-65.1021 735.552 -64.9579 736.308 -64.6756 737.019L-46.3757 783.155C-45.8625 784.449 -46.0001 785.827 -46.6752 786.824L-62.1654 809.702C-62.6913 810.479 -63.5052 810.971 -64.4373 811.077L-91.89 814.191C-93.0864 814.326 -94.371 813.809 -95.2793 812.754L-127.667 775.145C-128.166 774.565 -128.769 774.087 -129.439 773.743L-176.408 749.647C-178.78 748.43 -181.122 749.117 -182.481 750.748C-183.829 752.368 -184.167 754.858 -182.773 757.16L-147.429 815.555C-147.05 816.181 -146.562 816.734 -145.992 817.182L-114.945 841.578Z" fill="#222222" fill-opacity="0.04" stroke="url(#paint24_radial_1_2)" stroke-width="1.55828"/>
<path d="M-107.186 836.145C-106.398 836.763 -105.451 837.129 -104.479 837.17L-48.3386 839.558C-46.644 839.63 -45.1239 838.71 -44.4018 837.176L-20.4815 786.33C-20.0672 785.449 -19.9522 784.442 -20.1347 783.457L-26.1786 750.837C-26.2924 750.223 -26.5195 749.63 -26.8455 749.091L-56.5342 700.039C-57.7324 698.06 -59.7718 697.319 -61.5565 697.704C-63.3569 698.093 -64.8251 699.618 -64.8458 701.918L-65.2442 746.28C-65.25 746.929 -65.126 747.58 -64.8832 748.193L-49.5211 786.953C-49.104 788.005 -49.2196 789.119 -49.7628 789.92L-62.8044 809.156C-63.2271 809.779 -63.88 810.174 -64.6283 810.26L-87.7185 812.893C-88.6803 813.003 -89.721 812.588 -90.4598 811.731L-117.675 780.145C-118.105 779.646 -118.624 779.234 -119.202 778.938L-158.69 758.717C-160.737 757.669 -162.769 758.262 -163.948 759.677C-165.117 761.08 -165.407 763.23 -164.209 765.21L-134.52 814.261C-134.194 814.8 -133.774 815.276 -133.282 815.662L-107.186 836.145Z" fill="#222222" fill-opacity="0.04" stroke="url(#paint25_radial_1_2)" stroke-width="1.55828"/>
<path d="M819.609 1129.23C818.462 1126.43 818.241 1123.33 818.98 1120.39L865.785 933.986C867.061 928.905 871.029 924.937 876.11 923.661L1062.51 876.856C1065.45 876.118 1068.55 876.338 1071.36 877.486L1170.19 917.906C1171.94 918.621 1173.52 919.677 1174.86 921.012L1303.49 1049.64C1313.37 1059.52 1304.57 1076.23 1290.84 1073.67L1148.07 1047.08C1146.12 1046.72 1144.27 1045.95 1142.64 1044.84L1033.14 969.863C1029.95 967.677 1025.87 967.253 1022.29 968.735L947.899 999.591C945.1 1000.75 942.876 1002.98 941.715 1005.78L910.859 1080.17C909.377 1083.74 909.801 1087.82 911.987 1091.01L986.959 1200.51C988.077 1202.15 988.842 1204 989.205 1205.94L1015.79 1348.71C1018.35 1362.44 1001.64 1371.24 991.766 1361.37L863.136 1232.74C861.801 1231.4 860.745 1229.81 860.03 1228.07L819.609 1129.23Z" fill="#222222" fill-opacity="0.04" stroke="url(#paint26_radial_1_2)" stroke-width="2.77466"/>
<path d="M833.12 1116.88C832.08 1114.33 831.879 1111.52 832.549 1108.86L874.513 941.749C875.67 937.142 879.267 933.545 883.874 932.388L1050.98 890.423C1053.65 889.754 1056.46 889.954 1059 890.994L1147.6 927.229C1149.19 927.877 1150.63 928.834 1151.84 930.044L1267.15 1045.36C1276.1 1054.31 1268.13 1069.46 1255.68 1067.14L1127.69 1043.31L1127.94 1041.94L1127.69 1043.31C1125.92 1042.98 1124.24 1042.29 1122.76 1041.27L1024.6 974.062C1021.78 972.13 1018.17 971.755 1015.01 973.065L948.321 1000.73C945.846 1001.75 943.88 1003.72 942.854 1006.2L915.19 1072.89C913.88 1076.05 914.255 1079.65 916.187 1082.48L983.397 1180.64C984.411 1182.12 985.104 1183.8 985.432 1185.56L1009.26 1313.55C1011.58 1326 996.436 1333.98 987.483 1325.02L872.17 1209.71C870.959 1208.5 870.002 1207.06 869.354 1205.48L833.12 1116.88Z" fill="#222222" fill-opacity="0.04" stroke="url(#paint27_radial_1_2)" stroke-width="2.77466"/>
<path d="M850.043 1100.3C849.142 1098.09 848.968 1095.66 849.548 1093.35L885.233 951.223C886.236 947.23 889.354 944.112 893.348 943.109L1035.47 907.424C1037.78 906.844 1040.22 907.018 1042.42 907.919L1117.78 938.739C1119.15 939.301 1120.4 940.131 1121.45 941.18L1219.52 1039.26C1227.28 1047.02 1220.37 1060.15 1209.58 1058.14L1100.72 1037.87C1099.19 1037.58 1097.74 1036.98 1096.46 1036.1L1012.97 978.936C1010.63 977.333 1007.63 977.022 1005.01 978.109L948.293 1001.63C946.241 1002.49 944.61 1004.12 943.758 1006.17L920.233 1062.89C919.146 1065.51 919.458 1068.5 921.06 1070.84L978.225 1154.33C979.104 1155.62 979.705 1157.07 979.99 1158.6L1000.26 1267.45C1002.27 1278.25 989.142 1285.16 981.38 1277.4L883.304 1179.32C882.255 1178.27 881.425 1177.03 880.863 1175.65L850.043 1100.3Z" fill="#222222" fill-opacity="0.04" stroke="url(#paint28_radial_1_2)" stroke-width="2.7831"/>
<path d="M866.536 1085.28C865.762 1083.4 865.61 1081.31 866.104 1079.34L895.766 960.573C896.62 957.154 899.287 954.487 902.706 953.633L1021.47 923.971C1023.45 923.477 1025.53 923.629 1027.42 924.403L1090.45 950.255C1091.62 950.738 1092.69 951.449 1093.59 952.348L1175.69 1034.45C1182.34 1041.1 1176.44 1052.34 1167.19 1050.6L1076.17 1033.53C1074.87 1033.28 1073.62 1032.76 1072.52 1032.01L1002.66 984.126C1000.77 982.825 998.344 982.571 996.226 983.447L948.84 1003.05C947.181 1003.73 945.864 1005.05 945.178 1006.71L925.58 1054.09C924.704 1056.21 924.958 1058.63 926.259 1060.53L974.143 1130.39C974.896 1131.49 975.413 1132.73 975.658 1134.04L992.734 1225.06C994.469 1234.31 983.228 1240.2 976.581 1233.56L894.481 1151.46C893.582 1150.56 892.87 1149.49 892.388 1148.31L893.672 1147.79L892.388 1148.31L866.536 1085.28Z" fill="#222222" fill-opacity="0.04" stroke="url(#paint29_radial_1_2)" stroke-width="2.77466"/>
<path d="M879.905 1073.43C879.237 1071.8 879.108 1070 879.536 1068.29L904.555 968.43C905.295 965.476 907.6 963.171 910.553 962.432L1010.42 937.412C1012.13 936.984 1013.93 937.114 1015.56 937.781L1068.53 959.471C1069.54 959.887 1070.46 960.501 1071.24 961.277L1140.2 1030.24C1145.94 1035.98 1140.84 1045.69 1132.86 1044.2L1056.35 1029.91C1055.22 1029.7 1054.14 1029.25 1053.19 1028.6L994.498 988.394C992.966 987.345 991.009 987.14 989.296 987.85L949.445 1004.36C948.104 1004.91 947.038 1005.98 946.482 1007.32L929.973 1047.17C929.264 1048.89 929.468 1050.84 930.517 1052.37L970.725 1111.07C971.375 1112.02 971.82 1113.09 972.031 1114.23L986.324 1190.73C987.815 1198.72 978.105 1203.82 972.365 1198.08L903.401 1129.12C902.625 1128.34 902.011 1127.42 901.595 1126.4L879.905 1073.43Z" fill="#222222" fill-opacity="0.04" stroke="url(#paint30_radial_1_2)" stroke-width="2.77466"/>
<path d="M892.911 1061.46C892.353 1060.1 892.244 1058.59 892.602 1057.16L912.972 975.867C913.591 973.397 915.519 971.469 917.99 970.85L999.284 950.48C1000.71 950.122 1002.22 950.23 1003.58 950.788L1046.7 968.443C1047.55 968.791 1048.32 969.305 1048.97 969.954L1105.11 1026.09C1109.91 1030.89 1105.64 1039.01 1098.96 1037.77L1036.68 1026.14C1035.74 1025.96 1034.84 1025.59 1034.04 1025.04L986.264 992.314C985.068 991.495 983.541 991.336 982.205 991.889L949.764 1005.33C948.717 1005.76 947.886 1006.59 947.452 1007.64L934.012 1040.08C933.458 1041.42 933.617 1042.95 934.436 1044.14L967.165 1091.92C967.709 1092.71 968.081 1093.61 968.258 1094.56L979.89 1156.84C981.137 1163.52 973.014 1167.79 968.214 1162.99L912.076 1106.85C911.427 1106.2 910.914 1105.43 910.566 1104.58L892.911 1061.46Z" fill="#222222" fill-opacity="0.04" stroke="url(#paint31_radial_1_2)" stroke-width="2.62899"/>
<path d="M623.913 1053.33C625.407 1052.19 627.226 1051.57 629.103 1051.54L748.146 1049.66C751.392 1049.61 754.402 1051.34 755.98 1054.18L813.874 1158.21C814.787 1159.85 815.152 1161.74 814.915 1163.61L806.574 1229.22C806.427 1230.39 806.05 1231.5 805.465 1232.52L749.12 1330.11C744.794 1337.6 733.386 1335.02 732.715 1326.39L725.733 1236.7C725.638 1235.47 725.799 1234.25 726.206 1233.09L753.511 1155.55C754.307 1153.29 753.907 1150.78 752.447 1148.88L722.056 1109.31C720.913 1107.82 719.225 1106.85 717.364 1106.6L667.902 1100.06C665.527 1099.75 663.153 1100.66 661.593 1102.48L608.093 1164.9C607.295 1165.83 606.311 1166.58 605.205 1167.11L524.038 1205.91C516.231 1209.64 508.288 1201.06 512.614 1193.56L568.959 1095.97C569.544 1094.96 570.324 1094.07 571.255 1093.36L623.913 1053.33Z" fill="#222222" fill-opacity="0.04" stroke="url(#paint32_radial_1_2)" stroke-width="1.71885"/>
<path d="M1127.61 860.269C1126.24 861.341 1124.61 861.966 1122.95 862.036L1018.14 866.436C1015.25 866.558 1012.67 864.992 1011.43 862.374L966.728 767.484C966.018 765.977 965.815 764.241 966.131 762.533L977.382 701.678C977.578 700.613 977.972 699.583 978.539 698.647L1033.91 607.158C1036 603.707 1039.52 602.456 1042.57 603.115C1045.63 603.777 1048.14 606.359 1048.18 610.326L1048.97 693.095C1048.98 694.217 1048.76 695.345 1048.34 696.409L1019.7 768.711C1018.85 770.86 1019.07 773.177 1020.22 774.876L1044.59 810.778C1045.49 812.105 1046.89 812.949 1048.48 813.132L1091.59 818.068C1093.63 818.302 1095.78 817.423 1097.29 815.673L1148.07 756.768C1148.81 755.901 1149.71 755.189 1150.71 754.678L1224.41 716.99C1227.94 715.184 1231.39 716.211 1233.4 718.617C1235.39 721.01 1235.92 724.708 1233.83 728.158L1178.46 819.648C1177.89 820.584 1177.16 821.41 1176.31 822.079L1127.61 860.269Z" fill="#222222" fill-opacity="0.04" stroke="url(#paint33_radial_1_2)" stroke-width="1.55828"/>
<path d="M1119.56 854.841C1118.33 855.812 1116.85 856.379 1115.34 856.443L1021.38 860.385C1018.76 860.496 1016.41 859.074 1015.29 856.698L975.209 771.63C974.565 770.262 974.382 768.689 974.668 767.142L984.753 712.587C984.931 711.623 985.287 710.69 985.8 709.843L1035.44 627.826C1037.33 624.703 1040.52 623.566 1043.29 624.164C1046.07 624.765 1048.35 627.112 1048.38 630.707L1049.09 704.908C1049.1 705.924 1048.9 706.946 1048.52 707.91L1022.85 772.726C1022.09 774.63 1022.29 776.678 1023.31 778.177L1045.15 810.363C1045.95 811.534 1047.18 812.278 1048.58 812.439L1087.23 816.865C1089.03 817.071 1090.94 816.297 1092.27 814.746L1137.79 761.94C1138.47 761.155 1139.28 760.509 1140.19 760.046L1206.25 726.261C1209.46 724.624 1212.59 725.556 1214.41 727.74C1216.22 729.912 1216.7 733.265 1214.81 736.387L1165.17 818.405C1164.65 819.252 1163.99 820 1163.22 820.606L1119.56 854.841Z" fill="#222222" fill-opacity="0.04" stroke="url(#paint34_radial_1_2)" stroke-width="1.55828"/>
<path d="M1108.9 848.218C1107.83 849.058 1106.55 849.55 1105.24 849.605L1025.33 852.961C1023.05 853.057 1021.01 851.821 1020.04 849.757L985.955 777.408C985.396 776.221 985.238 774.857 985.485 773.518L994.064 727.119C994.218 726.285 994.527 725.478 994.97 724.745L1037.19 654.988C1038.82 652.29 1041.59 651.3 1043.99 651.819C1046.41 652.342 1048.39 654.384 1048.41 657.499L1049.01 720.607C1049.02 721.487 1048.86 722.371 1048.53 723.204L1026.69 778.332C1026.06 779.918 1026.23 781.619 1027.07 782.858L1045.65 810.231C1046.3 811.198 1047.32 811.812 1048.48 811.945L1081.34 815.708C1082.83 815.879 1084.42 815.238 1085.53 813.946L1124.24 769.033C1124.83 768.354 1125.53 767.795 1126.32 767.395L1182.51 738.658C1185.28 737.24 1188.01 738.046 1189.59 739.945C1191.16 741.832 1191.57 744.739 1189.94 747.438L1147.71 817.195C1147.27 817.928 1146.7 818.575 1146.03 819.099L1108.9 848.218Z" fill="#222222" fill-opacity="0.04" stroke="url(#paint35_radial_1_2)" stroke-width="1.56301"/>
<path d="M1099.12 841.579C1098.21 842.297 1097.11 842.721 1095.99 842.77L1029.23 845.661C1027.28 845.745 1025.52 844.685 1024.69 842.912L996.294 782.43C995.816 781.412 995.683 780.245 995.896 779.101L1003.11 740.28C1003.24 739.567 1003.51 738.878 1003.89 738.252L1039.23 679.857C1040.62 677.555 1042.99 676.699 1045.05 677.143C1047.12 677.59 1048.82 679.346 1048.84 682.012L1049.27 734.8C1049.28 735.552 1049.13 736.308 1048.85 737.02L1030.55 783.156C1030.04 784.45 1030.18 785.827 1030.85 786.825L1046.34 809.702C1046.87 810.479 1047.68 810.972 1048.61 811.078L1076.07 814.191C1077.26 814.327 1078.55 813.81 1079.46 812.755L1111.84 775.146C1112.34 774.565 1112.95 774.087 1113.62 773.743L1160.58 749.647C1162.96 748.431 1165.3 749.117 1166.66 750.749C1168.01 752.368 1168.34 754.858 1166.95 757.161L1131.61 815.555C1131.23 816.181 1130.74 816.735 1130.17 817.183L1099.12 841.579Z" fill="#222222" fill-opacity="0.04" stroke="url(#paint36_radial_1_2)" stroke-width="1.55828"/>
<path d="M1091.36 836.146C1090.57 836.765 1089.63 837.13 1088.66 837.171L1032.52 839.56C1030.82 839.632 1029.3 838.712 1028.58 837.177L1004.66 786.331C1004.24 785.451 1004.13 784.443 1004.31 783.458L1010.36 750.838C1010.47 750.224 1010.7 749.631 1011.02 749.092L1040.71 700.041C1041.91 698.061 1043.95 697.32 1045.73 697.705C1047.53 698.094 1049 699.619 1049.02 701.919L1049.42 746.281C1049.43 746.93 1049.3 747.581 1049.06 748.194L1033.7 786.954C1033.28 788.006 1033.4 789.12 1033.94 789.922L1046.98 809.157C1047.4 809.781 1048.06 810.176 1048.81 810.261L1071.9 812.894C1072.86 813.004 1073.9 812.59 1074.64 811.732L1101.85 780.146C1102.28 779.647 1102.8 779.235 1103.38 778.939L1142.87 758.719C1144.91 757.67 1146.95 758.264 1148.13 759.679C1149.29 761.081 1149.58 763.232 1148.39 765.211L1118.7 814.263C1118.37 814.801 1117.95 815.278 1117.46 815.663L1091.36 836.146Z" fill="#222222" fill-opacity="0.04" stroke="url(#paint37_radial_1_2)" stroke-width="1.55828"/>
</g>
</g>
<defs>
<filter id="filter0_f_1_2" x="-114.249" y="-231.449" width="1212.99" height="1212.99" filterUnits="userSpaceOnUse" color-interpolation-filters="sRGB">
<feFlood flood-opacity="0" result="BackgroundImageFix"/>
<feBlend mode="normal" in="SourceGraphic" in2="BackgroundImageFix" result="shape"/>
<feGaussianBlur stdDeviation="99.4252" result="effect1_foregroundBlur_1_2"/>
</filter>
<filter id="filter1_f_1_2" x="97.5294" y="167.916" width="789.436" height="953.488" filterUnits="userSpaceOnUse" color-interpolation-filters="sRGB">
<feFlood flood-opacity="0" result="BackgroundImageFix"/>
<feBlend mode="normal" in="SourceGraphic" in2="BackgroundImageFix" result="shape"/>
<feGaussianBlur stdDeviation="99.4252" result="effect1_foregroundBlur_1_2"/>
</filter>
<filter id="filter2_b_1_2" x="132.469" y="166.467" width="719.234" height="666.171" filterUnits="userSpaceOnUse" color-interpolation-filters="sRGB">
<feFlood flood-opacity="0" result="BackgroundImageFix"/>
<feGaussianBlur in="BackgroundImageFix" stdDeviation="3.87152"/>
<feComposite in2="SourceAlpha" operator="in" result="effect1_backgroundBlur_1_2"/>
<feBlend mode="normal" in="SourceGraphic" in2="effect1_backgroundBlur_1_2" result="shape"/>
</filter>
<filter id="filter3_b_1_2" x="168.587" y="214.365" width="646.99" height="599.393" filterUnits="userSpaceOnUse" color-interpolation-filters="sRGB">
<feFlood flood-opacity="0" result="BackgroundImageFix"/>
<feGaussianBlur in="BackgroundImageFix" stdDeviation="3.87152"/>
<feComposite in2="SourceAlpha" operator="in" result="effect1_backgroundBlur_1_2"/>
<feBlend mode="normal" in="SourceGraphic" in2="effect1_backgroundBlur_1_2" result="shape"/>
</filter>
<filter id="filter4_b_1_2" x="215.379" y="277.64" width="553.416" height="512.977" filterUnits="userSpaceOnUse" color-interpolation-filters="sRGB">
<feFlood flood-opacity="0" result="BackgroundImageFix"/>
<feGaussianBlur in="BackgroundImageFix" stdDeviation="3.87152"/>
<feComposite in2="SourceAlpha" operator="in" result="effect1_backgroundBlur_1_2"/>
<feBlend mode="normal" in="SourceGraphic" in2="effect1_backgroundBlur_1_2" result="shape"/>
</filter>
<filter id="filter5_b_1_2" x="259.371" y="334.997" width="465.446" height="432.854" filterUnits="userSpaceOnUse" color-interpolation-filters="sRGB">
<feFlood flood-opacity="0" result="BackgroundImageFix"/>
<feGaussianBlur in="BackgroundImageFix" stdDeviation="3.87152"/>
<feComposite in2="SourceAlpha" operator="in" result="effect1_backgroundBlur_1_2"/>
<feBlend mode="normal" in="SourceGraphic" in2="effect1_backgroundBlur_1_2" result="shape"/>
</filter>
<filter id="filter6_b_1_2" x="294.595" y="381.812" width="394.979" height="366.984" filterUnits="userSpaceOnUse" color-interpolation-filters="sRGB">
<feFlood flood-opacity="0" result="BackgroundImageFix"/>
<feGaussianBlur in="BackgroundImageFix" stdDeviation="3.87152"/>
<feComposite in2="SourceAlpha" operator="in" result="effect1_backgroundBlur_1_2"/>
<feBlend mode="normal" in="SourceGraphic" in2="effect1_backgroundBlur_1_2" result="shape"/>
</filter>
<filter id="filter7_b_1_2" x="329.235" y="427.965" width="325.7" height="302.889" filterUnits="userSpaceOnUse" color-interpolation-filters="sRGB">
<feFlood flood-opacity="0" result="BackgroundImageFix"/>
<feGaussianBlur in="BackgroundImageFix" stdDeviation="3.87152"/>
<feComposite in2="SourceAlpha" operator="in" result="effect1_backgroundBlur_1_2"/>
<feBlend mode="normal" in="SourceGraphic" in2="effect1_backgroundBlur_1_2" result="shape"/>
</filter>
<linearGradient id="paint0_linear_1_2" x1="492.245" y1="-32.5981" x2="492.245" y2="782.689" gradientUnits="userSpaceOnUse">
<stop stop-color="#00F0FF" stop-opacity="0.15"/>
<stop offset="0.885417" stop-color="#FF29C3"/>
</linearGradient>
<linearGradient id="paint1_linear_1_2" x1="492.248" y1="366.766" x2="492.248" y2="922.553" gradientUnits="userSpaceOnUse">
<stop stop-color="#00D7FF" stop-opacity="0.43"/>
<stop offset="1" stop-color="#2D02A2"/>
</linearGradient>
<linearGradient id="paint2_linear_1_2" x1="492.086" y1="177.054" x2="492.086" y2="822.057" gradientUnits="userSpaceOnUse">
<stop offset="0.125" stop-color="#E2C1FC" stop-opacity="0.5"/>
<stop offset="0.494792" stop-color="#0C34E2" stop-opacity="0.15"/>
<stop offset="0.729167" stop-opacity="0.21"/>
<stop offset="1" stop-opacity="0.35"/>
</linearGradient>
<radialGradient id="paint3_radial_1_2" cx="0" cy="0" r="1" gradientUnits="userSpaceOnUse" gradientTransform="translate(492.086 499.555) rotate(90) scale(322.502 349.035)">
<stop offset="0.552083" stop-color="white"/>
<stop offset="1" stop-color="#2F0C8D"/>
</radialGradient>
<linearGradient id="paint4_linear_1_2" x1="492.082" y1="224.952" x2="492.082" y2="803.178" gradientUnits="userSpaceOnUse">
<stop offset="0.125" stop-color="#E2C1FC" stop-opacity="0.5"/>
<stop offset="0.494792" stop-color="#0C34E2" stop-opacity="0.15"/>
<stop offset="0.729167" stop-opacity="0.21"/>
<stop offset="1" stop-opacity="0.35"/>
</linearGradient>
<radialGradient id="paint5_radial_1_2" cx="0" cy="0" r="1" gradientUnits="userSpaceOnUse" gradientTransform="translate(492.082 514.065) rotate(90) scale(289.113 312.914)">
<stop offset="0.552083" stop-color="white"/>
<stop offset="1" stop-color="#2F0C8D"/>
</radialGradient>
<linearGradient id="paint6_linear_1_2" x1="492.087" y1="288.235" x2="492.087" y2="780.027" gradientUnits="userSpaceOnUse">
<stop offset="0.125" stop-color="#E2C1FC" stop-opacity="0.5"/>
<stop offset="0.494792" stop-color="#0C34E2" stop-opacity="0.15"/>
<stop offset="0.729167" stop-opacity="0.21"/>
<stop offset="1" stop-opacity="0.35"/>
</linearGradient>
<radialGradient id="paint7_radial_1_2" cx="0" cy="0" r="1" gradientUnits="userSpaceOnUse" gradientTransform="translate(492.087 534.131) rotate(90) scale(245.896 266.118)">
<stop offset="0.552083" stop-color="white"/>
<stop offset="1" stop-color="#2F0C8D"/>
</radialGradient>
<linearGradient id="paint8_linear_1_2" x1="492.094" y1="345.586" x2="492.094" y2="757.27" gradientUnits="userSpaceOnUse">
<stop offset="0.125" stop-color="#E2C1FC" stop-opacity="0.5"/>
<stop offset="0.494792" stop-color="#0C34E2" stop-opacity="0.15"/>
<stop offset="0.729167" stop-opacity="0.21"/>
<stop offset="1" stop-opacity="0.35"/>
</linearGradient>
<radialGradient id="paint9_radial_1_2" cx="0" cy="0" r="1" gradientUnits="userSpaceOnUse" gradientTransform="translate(492.094 551.428) rotate(90) scale(205.842 222.141)">
<stop offset="0.552083" stop-color="white"/>
<stop offset="1" stop-color="#2F0C8D"/>
</radialGradient>
<linearGradient id="paint10_linear_1_2" x1="492.085" y1="392.4" x2="492.085" y2="738.215" gradientUnits="userSpaceOnUse">
<stop offset="0.125" stop-color="#E2C1FC" stop-opacity="0.5"/>
<stop offset="0.494792" stop-color="#0C34E2" stop-opacity="0.15"/>
<stop offset="0.729167" stop-opacity="0.21"/>
<stop offset="1" stop-opacity="0.35"/>
</linearGradient>
<radialGradient id="paint11_radial_1_2" cx="0" cy="0" r="1" gradientUnits="userSpaceOnUse" gradientTransform="translate(492.085 565.307) rotate(90) scale(172.908 186.908)">
<stop offset="0.552083" stop-color="white"/>
<stop offset="1" stop-color="#2F0C8D"/>
</radialGradient>
<linearGradient id="paint12_linear_1_2" x1="492.085" y1="438.666" x2="492.085" y2="720.161" gradientUnits="userSpaceOnUse">
<stop offset="0.125" stop-color="#E2C1FC" stop-opacity="0.5"/>
<stop offset="0.494792" stop-color="#0C34E2" stop-opacity="0.15"/>
<stop offset="0.729167" stop-opacity="0.21"/>
<stop offset="1" stop-opacity="0.35"/>
</linearGradient>
<radialGradient id="paint13_radial_1_2" cx="0" cy="0" r="1" gradientUnits="userSpaceOnUse" gradientTransform="translate(492.085 579.413) rotate(90) scale(140.748 152.156)">
<stop offset="0.552083" stop-color="white"/>
<stop offset="1" stop-color="#2F0C8D"/>
</radialGradient>
<radialGradient id="paint14_radial_1_2" cx="0" cy="0" r="1" gradientUnits="userSpaceOnUse" gradientTransform="translate(-29.4318 1071.48) rotate(-45) scale(202.384 219.035)">
<stop offset="0.536458" stop-color="#686890"/>
<stop offset="1" stop-color="#222222" stop-opacity="0.21"/>
</radialGradient>
<radialGradient id="paint15_radial_1_2" cx="0" cy="0" r="1" gradientUnits="userSpaceOnUse" gradientTransform="translate(-22.9951 1065.05) rotate(-45) scale(181.431 196.367)">
<stop offset="0.536458" stop-color="#686890"/>
<stop offset="1" stop-color="#222222" stop-opacity="0.21"/>
</radialGradient>
<radialGradient id="paint16_radial_1_2" cx="0" cy="0" r="1" gradientUnits="userSpaceOnUse" gradientTransform="translate(-14.0932 1056.14) rotate(-45) scale(154.31 167.001)">
<stop offset="0.536458" stop-color="#686890"/>
<stop offset="1" stop-color="#222222" stop-opacity="0.21"/>
</radialGradient>
<radialGradient id="paint17_radial_1_2" cx="0" cy="0" r="1" gradientUnits="userSpaceOnUse" gradientTransform="translate(-6.41824 1048.46) rotate(-45) scale(129.175 139.403)">
<stop offset="0.536458" stop-color="#686890"/>
<stop offset="1" stop-color="#222222" stop-opacity="0.21"/>
</radialGradient>
<radialGradient id="paint18_radial_1_2" cx="0" cy="0" r="1" gradientUnits="userSpaceOnUse" gradientTransform="translate(-0.257772 1042.31) rotate(-45) scale(108.507 117.293)">
<stop offset="0.536458" stop-color="#686890"/>
<stop offset="1" stop-color="#222222" stop-opacity="0.21"/>
</radialGradient>
<radialGradient id="paint19_radial_1_2" cx="0" cy="0" r="1" gradientUnits="userSpaceOnUse" gradientTransform="translate(6.00176 1036.05) rotate(-45) scale(88.3252 95.4845)">
<stop offset="0.536458" stop-color="#686890"/>
<stop offset="1" stop-color="#222222" stop-opacity="0.21"/>
</radialGradient>
<radialGradient id="paint20_radial_1_2" cx="0" cy="0" r="1" gradientUnits="userSpaceOnUse" gradientTransform="translate(294.604 1160.15) rotate(-120) scale(125.373 135.688)">
<stop offset="0.536458" stop-color="#686890"/>
<stop offset="1" stop-color="#222222" stop-opacity="0.21"/>
</radialGradient>
<radialGradient id="paint21_radial_1_2" cx="0" cy="0" r="1" gradientUnits="userSpaceOnUse" gradientTransform="translate(-92.0004 762.979) rotate(58.8153) scale(118.978 116.062)">
<stop offset="0.536458" stop-color="#686890"/>
<stop offset="1" stop-color="#222222" stop-opacity="0.21"/>
</radialGradient>
<radialGradient id="paint22_radial_1_2" cx="0" cy="0" r="1" gradientUnits="userSpaceOnUse" gradientTransform="translate(-89.2298 767.558) rotate(58.8153) scale(106.66 104.051)">
<stop offset="0.536458" stop-color="#686890"/>
<stop offset="1" stop-color="#222222" stop-opacity="0.21"/>
</radialGradient>
<radialGradient id="paint23_radial_1_2" cx="0" cy="0" r="1" gradientUnits="userSpaceOnUse" gradientTransform="translate(-85.3969 773.891) rotate(58.8153) scale(90.7161 88.4904)">
<stop offset="0.536458" stop-color="#686890"/>
<stop offset="1" stop-color="#222222" stop-opacity="0.21"/>
</radialGradient>
<radialGradient id="paint24_radial_1_2" cx="0" cy="0" r="1" gradientUnits="userSpaceOnUse" gradientTransform="translate(-82.0885 779.349) rotate(58.8153) scale(75.9395 73.8671)">
<stop offset="0.536458" stop-color="#686890"/>
<stop offset="1" stop-color="#222222" stop-opacity="0.21"/>
</radialGradient>
<radialGradient id="paint25_radial_1_2" cx="0" cy="0" r="1" gradientUnits="userSpaceOnUse" gradientTransform="translate(-79.4389 783.731) rotate(58.8153) scale(63.7892 62.1513)">
<stop offset="0.536458" stop-color="#686890"/>
<stop offset="1" stop-color="#222222" stop-opacity="0.21"/>
</radialGradient>
<radialGradient id="paint26_radial_1_2" cx="0" cy="0" r="1" gradientUnits="userSpaceOnUse" gradientTransform="translate(1013.61 1071.48) rotate(-135) scale(202.384 219.035)">
<stop offset="0.536458" stop-color="#686890"/>
<stop offset="1" stop-color="#222222" stop-opacity="0.21"/>
</radialGradient>
<radialGradient id="paint27_radial_1_2" cx="0" cy="0" r="1" gradientUnits="userSpaceOnUse" gradientTransform="translate(1007.17 1065.05) rotate(-135) scale(181.431 196.367)">
<stop offset="0.536458" stop-color="#686890"/>
<stop offset="1" stop-color="#222222" stop-opacity="0.21"/>
</radialGradient>
<radialGradient id="paint28_radial_1_2" cx="0" cy="0" r="1" gradientUnits="userSpaceOnUse" gradientTransform="translate(998.267 1056.14) rotate(-135) scale(154.31 167.001)">
<stop offset="0.536458" stop-color="#686890"/>
<stop offset="1" stop-color="#222222" stop-opacity="0.21"/>
</radialGradient>
<radialGradient id="paint29_radial_1_2" cx="0" cy="0" r="1" gradientUnits="userSpaceOnUse" gradientTransform="translate(990.595 1048.46) rotate(-135) scale(129.175 139.403)">
<stop offset="0.536458" stop-color="#686890"/>
<stop offset="1" stop-color="#222222" stop-opacity="0.21"/>
</radialGradient>
<radialGradient id="paint30_radial_1_2" cx="0" cy="0" r="1" gradientUnits="userSpaceOnUse" gradientTransform="translate(984.431 1042.31) rotate(-135) scale(108.507 117.293)">
<stop offset="0.536458" stop-color="#686890"/>
<stop offset="1" stop-color="#222222" stop-opacity="0.21"/>
</radialGradient>
<radialGradient id="paint31_radial_1_2" cx="0" cy="0" r="1" gradientUnits="userSpaceOnUse" gradientTransform="translate(978.172 1036.05) rotate(-135) scale(88.3252 95.4845)">
<stop offset="0.536458" stop-color="#686890"/>
<stop offset="1" stop-color="#222222" stop-opacity="0.21"/>
</radialGradient>
<radialGradient id="paint32_radial_1_2" cx="0" cy="0" r="1" gradientUnits="userSpaceOnUse" gradientTransform="translate(689.572 1160.16) rotate(-60) scale(125.373 135.688)">
<stop offset="0.536458" stop-color="#686890"/>
<stop offset="1" stop-color="#222222" stop-opacity="0.21"/>
</radialGradient>
<radialGradient id="paint33_radial_1_2" cx="0" cy="0" r="1" gradientUnits="userSpaceOnUse" gradientTransform="translate(1076.18 762.98) rotate(121.185) scale(118.978 116.062)">
<stop offset="0.536458" stop-color="#686890"/>
<stop offset="1" stop-color="#222222" stop-opacity="0.21"/>
</radialGradient>
<radialGradient id="paint34_radial_1_2" cx="0" cy="0" r="1" gradientUnits="userSpaceOnUse" gradientTransform="translate(1073.4 767.56) rotate(121.185) scale(106.66 104.051)">
<stop offset="0.536458" stop-color="#686890"/>
<stop offset="1" stop-color="#222222" stop-opacity="0.21"/>
</radialGradient>
<radialGradient id="paint35_radial_1_2" cx="0" cy="0" r="1" gradientUnits="userSpaceOnUse" gradientTransform="translate(1069.57 773.893) rotate(121.185) scale(90.7161 88.4904)">
<stop offset="0.536458" stop-color="#686890"/>
<stop offset="1" stop-color="#222222" stop-opacity="0.21"/>
</radialGradient>
<radialGradient id="paint36_radial_1_2" cx="0" cy="0" r="1" gradientUnits="userSpaceOnUse" gradientTransform="translate(1066.27 779.35) rotate(121.185) scale(75.9395 73.8671)">
<stop offset="0.536458" stop-color="#686890"/>
<stop offset="1" stop-color="#222222" stop-opacity="0.21"/>
</radialGradient>
<radialGradient id="paint37_radial_1_2" cx="0" cy="0" r="1" gradientUnits="userSpaceOnUse" gradientTransform="translate(1063.62 783.732) rotate(121.185) scale(63.7892 62.1513)">
<stop offset="0.536458" stop-color="#686890"/>
<stop offset="1" stop-color="#222222" stop-opacity="0.21"/>
</radialGradient>
<clipPath id="clip0_1_2">
<rect width="2767.55" height="1556.75" fill="white" transform="translate(-891.555 -115.625)"/>
</clipPath>
</defs>
</svg>
